<svg width="32" height="32" xmlns="http://www.w3.org/2000/svg"><g fill="none" fill-rule="evenodd"><path d="M16 0C7.163 0 0 7.163 0 16s7.163 16 16 16c.366 0 .728-.013 1.087-.037C9.72 31.52 3.881 25.406 3.881 17.926c0-7.767 6.296-14.063 14.063-14.063 7.436 0 13.523 5.771 14.028 13.078.018-.311.028-.625.028-.941 0-8.837-7.163-16-16-16" fill="#000"/><path d="M25.73 18.719a5.119 5.119 0 0 1-1.737-9.934 11.186 11.186 0 0 0-5.23-1.289c-6.21 0-11.243 5.034-11.243 11.244s5.034 11.244 11.244 11.244S30.008 24.95 30.008 18.74c0-.704-.066-1.393-.19-2.061a5.11 5.11 0 0 1-4.088 2.04" fill="#F47521"/></g></svg>